<?xml version="1.0" encoding="UTF-8" standalone="no"?>
<!-- Created with Inkscape (http://www.inkscape.org/) -->

<svg
   xmlns:dc="http://purl.org/dc/elements/1.1/"
   xmlns:cc="http://creativecommons.org/ns#"
   xmlns:rdf="http://www.w3.org/1999/02/22-rdf-syntax-ns#"
   xmlns:svg="http://www.w3.org/2000/svg"
   xmlns="http://www.w3.org/2000/svg"
   xmlns:sodipodi="http://sodipodi.sourceforge.net/DTD/sodipodi-0.dtd"
   xmlns:inkscape="http://www.inkscape.org/namespaces/inkscape"
   width="58mm"
   height="296.28372mm"
   viewBox="0 0 58 296.28372"
   version="1.1"
   id="svg8"
   inkscape:version="0.92.1 r15371"
   sodipodi:docname="front.svg">
  <defs
     id="defs2" />
  <sodipodi:namedview
     id="base"
     pagecolor="#ffffff"
     bordercolor="#666666"
     borderopacity="1.0"
     inkscape:pageopacity="0.0"
     inkscape:pageshadow="2"
     inkscape:zoom="0.64"
     inkscape:cx="-329.21536"
     inkscape:cy="541.85296"
     inkscape:document-units="mm"
     inkscape:current-layer="layer1"
     showgrid="false"
     inkscape:window-width="1920"
     inkscape:window-height="1001"
     inkscape:window-x="-9"
     inkscape:window-y="-9"
     inkscape:window-maximized="1"
     fit-margin-top="0"
     fit-margin-left="0"
     fit-margin-right="0"
     fit-margin-bottom="0" />
  <metadata
     id="metadata5">
    <rdf:RDF>
      <cc:Work
         rdf:about="">
        <dc:format>image/svg+xml</dc:format>
        <dc:type
           rdf:resource="http://purl.org/dc/dcmitype/StillImage" />
        <dc:title></dc:title>
      </cc:Work>
    </rdf:RDF>
  </metadata>
  <g
     inkscape:label="Layer 1"
     inkscape:groupmode="layer"
     id="layer1"
     transform="translate(1.1797185,114.34289)">
    <g
       aria-label="PhD"
       transform="matrix(0,-0.26397475,0.2640043,0,-29.530061,22.12769)"
       style="font-style:normal;font-weight:normal;font-size:40px;line-height:1.25;font-family:sans-serif;letter-spacing:0.45797917px;word-spacing:0px;fill:#99cdff;fill-opacity:1;stroke:#99cdff;stroke-width:1.8940146;stroke-miterlimit:4;stroke-dasharray:none;stroke-opacity:1"
       id="flowRoot4495-9-2">
      <path
         d="m -464.1198,180.6994 q 0,13.85742 -4.89909,25.75521 -4.75911,11.75781 -13.4375,20.43619 -10.77799,10.778 -25.47525,16.23698 -14.69727,5.31901 -37.0931,5.31901 h -27.71485 v 77.68555 h -27.71484 V 117.71112 h 56.54948 q 18.75651,0 31.77409,3.2194 13.01757,3.07943 23.0957,9.79818 11.89778,7.97851 18.33659,19.8763 6.57877,11.89779 6.57877,30.0944 z m -28.83463,0.69987 q 0,-10.77799 -3.7793,-18.75651 -3.7793,-7.97852 -11.47786,-13.01758 -6.71875,-4.33919 -15.39714,-6.15885 -8.53841,-1.95964 -21.69596,-1.95964 h -27.4349 v 83.28451 h 23.37565 q 16.79688,0 27.29493,-2.93946 10.49804,-3.07942 17.07682,-9.6582 6.57877,-6.71875 9.23828,-14.13737 2.79948,-7.41862 2.79948,-16.6569 z"
         style="letter-spacing:0px;fill:none;stroke-width:1.8940146;stroke-miterlimit:4;stroke-dasharray:none"
         id="path5322" />
      <path
         d="m -298.81055,326.13234 h -26.31511 V 237.1089 q 0,-10.77799 -1.25976,-20.15625 -1.25977,-9.51822 -4.61914,-14.83723 -3.49935,-5.87891 -10.07813,-8.67839 -6.57877,-2.93945 -17.07682,-2.93945 -10.77799,0 -22.53581,5.31901 -11.75781,5.31901 -22.5358,13.57747 v 116.73828 h -26.3151 V 108.33287 h 26.3151 v 78.80533 q 12.31771,-10.2181 25.47526,-15.95703 13.15755,-5.73893 27.01497,-5.73893 25.33529,0 38.63281,15.25716 13.29753,15.25716 13.29753,43.95182 z"
         style="letter-spacing:0px;fill:none;stroke-width:1.8940146;stroke-miterlimit:4;stroke-dasharray:none"
         id="path5324" />
      <path
         d="m -69.953132,222.13169 q 0,28.41471 -12.457682,51.51042 -12.317708,23.0957 -32.893876,35.83333 -14.27735,8.81836 -31.91406,12.73763 -17.49675,3.91927 -46.19141,3.91927 h -52.63021 V 117.71112 h 52.07032 q 30.51432,0 48.43098,4.47917 18.05664,4.33919 30.51432,12.03776 21.276046,13.29752 33.173832,35.41341 11.897786,22.11588 11.897786,52.49023 z m -28.974609,-0.41992 q 0,-24.49544 -8.538409,-41.29232 -8.53841,-16.79687 -25.47526,-26.45507 -12.31771,-6.9987 -26.17513,-9.65821 -13.85742,-2.79948 -33.17383,-2.79948 h -26.03515 v 160.83008 h 26.03515 q 20.01628,0 34.85352,-2.93946 14.97721,-2.93945 27.43489,-10.91797 15.53711,-9.93815 23.23568,-26.17512 7.838539,-16.23698 7.838539,-40.59245 z"
         style="font-size:286.66665649px;letter-spacing:0px;fill:#99cdff;fill-opacity:1;stroke:#99cdff;stroke-width:1.8940146;stroke-miterlimit:4;stroke-dasharray:none;stroke-opacity:1"
         id="path5326" />
    </g>
    <flowRoot
       xml:space="preserve"
       id="flowRoot5175"
       style="font-style:normal;font-weight:normal;font-size:40px;line-height:1.25;font-family:sans-serif;letter-spacing:0px;word-spacing:0px;fill:#000000;fill-opacity:1;stroke:none"
       transform="matrix(0.26458333,0,0,0.26458333,-0.06172005,-114.34289)"><flowRegion
         id="flowRegion5177"><rect
           id="rect5179"
           width="42.1875"
           height="42.1875"
           x="462.5"
           y="302.625" /></flowRegion><flowPara
         id="flowPara5181"></flowPara></flowRoot>    <g
       aria-label="PhD"
       transform="matrix(0,0.26397475,-0.2640043,0,85.170623,45.470252)"
       style="font-style:normal;font-weight:normal;font-size:40px;line-height:1.25;font-family:sans-serif;letter-spacing:0.45797917px;word-spacing:0px;fill:#99cdff;fill-opacity:1;stroke:#99cdff;stroke-width:1.8940146;stroke-miterlimit:4;stroke-dasharray:none;stroke-opacity:1"
       id="flowRoot4495-9-2-1">
      <path
         d="m -464.1198,180.6994 q 0,13.85742 -4.89909,25.75521 -4.75911,11.75781 -13.4375,20.43619 -10.77799,10.778 -25.47525,16.23698 -14.69727,5.31901 -37.0931,5.31901 h -27.71485 v 77.68555 h -27.71484 V 117.71112 h 56.54948 q 18.75651,0 31.77409,3.2194 13.01757,3.07943 23.0957,9.79818 11.89778,7.97851 18.33659,19.8763 6.57877,11.89779 6.57877,30.0944 z m -28.83463,0.69987 q 0,-10.77799 -3.7793,-18.75651 -3.7793,-7.97852 -11.47786,-13.01758 -6.71875,-4.33919 -15.39714,-6.15885 -8.53841,-1.95964 -21.69596,-1.95964 h -27.4349 v 83.28451 h 23.37565 q 16.79688,0 27.29493,-2.93946 10.49804,-3.07942 17.07682,-9.6582 6.57877,-6.71875 9.23828,-14.13737 2.79948,-7.41862 2.79948,-16.6569 z"
         style="letter-spacing:0px;fill:none;stroke-width:1.8940146;stroke-miterlimit:4;stroke-dasharray:none"
         id="path5315" />
      <path
         d="m -298.81055,326.13234 h -26.31511 V 237.1089 q 0,-10.77799 -1.25976,-20.15625 -1.25977,-9.51822 -4.61914,-14.83723 -3.49935,-5.87891 -10.07813,-8.67839 -6.57877,-2.93945 -17.07682,-2.93945 -10.77799,0 -22.53581,5.31901 -11.75781,5.31901 -22.5358,13.57747 v 116.73828 h -26.3151 V 108.33287 h 26.3151 v 78.80533 q 12.31771,-10.2181 25.47526,-15.95703 13.15755,-5.73893 27.01497,-5.73893 25.33529,0 38.63281,15.25716 13.29753,15.25716 13.29753,43.95182 z"
         style="letter-spacing:0px;fill:none;stroke-width:1.8940146;stroke-miterlimit:4;stroke-dasharray:none"
         id="path5317" />
      <path
         d="m -69.953132,222.13169 q 0,28.41471 -12.457682,51.51042 -12.317708,23.0957 -32.893876,35.83333 -14.27735,8.81836 -31.91406,12.73763 -17.49675,3.91927 -46.19141,3.91927 h -52.63021 V 117.71112 h 52.07032 q 30.51432,0 48.43098,4.47917 18.05664,4.33919 30.51432,12.03776 21.276046,13.29752 33.173832,35.41341 11.897786,22.11588 11.897786,52.49023 z m -28.974609,-0.41992 q 0,-24.49544 -8.538409,-41.29232 -8.53841,-16.79687 -25.47526,-26.45507 -12.31771,-6.9987 -26.17513,-9.65821 -13.85742,-2.79948 -33.17383,-2.79948 h -26.03515 v 160.83008 h 26.03515 q 20.01628,0 34.85352,-2.93946 14.97721,-2.93945 27.43489,-10.91797 15.53711,-9.93815 23.23568,-26.17512 7.838539,-16.23698 7.838539,-40.59245 z"
         style="fill:none"
         id="path5319" />
    </g>
  </g>
</svg>
