<?xml version="1.0" encoding="UTF-8" standalone="no"?>
<!-- Created with Inkscape (http://www.inkscape.org/) -->

<svg
   xmlns:dc="http://purl.org/dc/elements/1.1/"
   xmlns:cc="http://creativecommons.org/ns#"
   xmlns:rdf="http://www.w3.org/1999/02/22-rdf-syntax-ns#"
   xmlns:svg="http://www.w3.org/2000/svg"
   xmlns="http://www.w3.org/2000/svg"
   xmlns:sodipodi="http://sodipodi.sourceforge.net/DTD/sodipodi-0.dtd"
   xmlns:inkscape="http://www.inkscape.org/namespaces/inkscape"
   width="20.56765mm"
   height="21.119692mm"
   viewBox="0 0 20.56765 21.119692"
   version="1.1"
   id="svg8"
   inkscape:version="0.92.1 r15371"
   sodipodi:docname="fc.svg">
  <defs
     id="defs2" />
  <sodipodi:namedview
     id="base"
     pagecolor="#ffffff"
     bordercolor="#666666"
     borderopacity="1.0"
     inkscape:pageopacity="0.0"
     inkscape:pageshadow="2"
     inkscape:zoom="0.35"
     inkscape:cx="-242.07715"
     inkscape:cy="-241.20244"
     inkscape:document-units="mm"
     inkscape:current-layer="g10"
     showgrid="false"
     borderlayer="false"
     fit-margin-top="0"
     fit-margin-left="0"
     fit-margin-right="0"
     fit-margin-bottom="0"
     inkscape:window-width="1920"
     inkscape:window-height="1001"
     inkscape:window-x="-9"
     inkscape:window-y="-9"
     inkscape:window-maximized="1" />
  <metadata
     id="metadata5">
    <rdf:RDF>
      <cc:Work
         rdf:about="">
        <dc:format>image/svg+xml</dc:format>
        <dc:type
           rdf:resource="http://purl.org/dc/dcmitype/StillImage" />
        <dc:title></dc:title>
      </cc:Work>
    </rdf:RDF>
  </metadata>
  <g
     inkscape:label="Layer 1"
     inkscape:groupmode="layer"
     id="layer1"
     transform="translate(-16.046602,-55.832317)">
    <g
       id="g10"
       transform="matrix(0.35277777,0,0,-0.35277777,-0.70651119,282.72497)">
      <path
         inkscape:connector-curvature="0"
         id="path190"
         style="fill:#000000;fill-opacity:1;fill-rule:nonzero;stroke:none;stroke-width:0.1"
         d="m 105.79114,616.03429 v 15.858 h -1.984 c -0.311,-1.279 -1.268,-4.796 -1.268,-4.796 -1.317,0.875 -2.632,1.571 -4.038,2.273 -3.367,1.683 -6.739,2.523 -10.119,2.523 -4.405,0 -8.464,-1.096 -12.182,-3.285 -3.693,-2.168 -6.602,-5.231 -8.727,-9.195 -2.103,-3.918 -3.155,-8.257 -3.155,-13.023 0,-8.927 5.741,-17.827 12.875,-21.062 6.059,-2.725 12.681,-2.768 19.746,0.212 1.68,0.709 2.463,1.292 2.31,1.95 -0.094,0.405 -0.462,0.735 -0.963,0.457 -0.655,-0.362 -1.193,-0.546 -1.937,-0.858 -5.384,-2.232 -26.014,-5.386 -23.965,24.102 0.229,3.301 0.953,6.306 1.786,8.311 1.482,3.547 3.509,6.145 6.09,7.774 2.594,1.625 5.493,2.435 8.69,2.435 3.827,0 7.101,-1.081 9.811,-3.25 2.712,-2.173 4.788,-5.657 6.241,-10.426 h 0.789" />
      <path
         inkscape:connector-curvature="0"
         id="path192"
         style="fill:#000000;fill-opacity:1;fill-rule:nonzero;stroke:none;stroke-width:0.1"
         d="m 51.91514,636.73029 v -25.254 h 5.126 v 15.423 h 5.637 c 2.796,0 4.488,-2.164 4.488,-4.054 h 0.637 v 9.208 l -1.303,0.002 -0.852,-2.92 h -8.607 v 9.366 c 0,2.236 0.605,2.423 2.935,2.423 h 9.971 v 2.236 h -22.458 v -1.025 c 4.286,-0.745 4.426,-0.745 4.426,-5.405" />
    </g>
  </g>
</svg>
