<?xml version="1.0" encoding="UTF-8" standalone="no"?>
<!-- Created with Inkscape (http://www.inkscape.org/) -->

<svg
   xmlns:dc="http://purl.org/dc/elements/1.1/"
   xmlns:cc="http://creativecommons.org/ns#"
   xmlns:rdf="http://www.w3.org/1999/02/22-rdf-syntax-ns#"
   xmlns:svg="http://www.w3.org/2000/svg"
   xmlns="http://www.w3.org/2000/svg"
   xmlns:sodipodi="http://sodipodi.sourceforge.net/DTD/sodipodi-0.dtd"
   xmlns:inkscape="http://www.inkscape.org/namespaces/inkscape"
   width="108.0703mm"
   height="52.963177mm"
   viewBox="0 0 108.0703 52.963177"
   version="1.1"
   id="svg8"
   inkscape:version="0.92.1 r15371"
   sodipodi:docname="fcup.svg">
  <defs
     id="defs2" />
  <sodipodi:namedview
     id="base"
     pagecolor="#ffffff"
     bordercolor="#666666"
     borderopacity="1.0"
     inkscape:pageopacity="0.0"
     inkscape:pageshadow="2"
     inkscape:zoom="0.35"
     inkscape:cx="-230.73448"
     inkscape:cy="-241.20244"
     inkscape:document-units="mm"
     inkscape:current-layer="g10"
     showgrid="false"
     borderlayer="false"
     fit-margin-top="0"
     fit-margin-left="0"
     fit-margin-right="0"
     fit-margin-bottom="0"
     inkscape:window-width="1920"
     inkscape:window-height="1001"
     inkscape:window-x="-9"
     inkscape:window-y="-9"
     inkscape:window-maximized="1" />
  <metadata
     id="metadata5">
    <rdf:RDF>
      <cc:Work
         rdf:about="">
        <dc:format>image/svg+xml</dc:format>
        <dc:type
           rdf:resource="http://purl.org/dc/dcmitype/StillImage" />
        <dc:title></dc:title>
      </cc:Work>
    </rdf:RDF>
  </metadata>
  <g
     inkscape:label="Layer 1"
     inkscape:groupmode="layer"
     id="layer1"
     transform="translate(-13.045521,-23.988833)">
    <g
       id="g10"
       transform="matrix(0.35277777,0,0,-0.35277777,-0.70651119,282.72497)">
      <g
         id="g4828"
         transform="translate(-107.14286,40.714287)">
        <path
           d="m 245.611,574.404 c 0,-1.492 -0.461,-2.608 -1.382,-3.348 -0.898,-0.74 -1.996,-1.11 -3.293,-1.11 -1.286,0 -2.396,0.377 -3.33,1.129 -0.921,0.739 -1.382,1.849 -1.382,3.329 v 7.895 h 1.492 v -7.441 c 0,-0.764 0.042,-1.297 0.127,-1.601 0.097,-0.339 0.285,-0.655 0.564,-0.946 0.618,-0.691 1.455,-1.037 2.51,-1.037 1.055,0 1.892,0.346 2.511,1.037 0.279,0.291 0.467,0.607 0.564,0.946 0.085,0.304 0.127,0.837 0.127,1.601 v 7.441 h 1.492 v -7.895"
           style="fill:#000000;fill-opacity:1;fill-rule:nonzero;stroke:none;stroke-width:0.1"
           id="path114"
           inkscape:connector-curvature="0" />
        <path
           d="m 259.097,570.183 h -1.728 l -6.058,9.369 c -0.024,0.048 -0.057,0.106 -0.1,0.173 -0.042,0.066 -0.088,0.148 -0.136,0.245 -0.085,0.146 -0.195,0.388 -0.328,0.728 v -10.406 h -1.492 v 12.007 h 1.947 l 5.949,-9.151 c 0.036,-0.06 0.067,-0.109 0.091,-0.145 0.024,-0.037 0.048,-0.082 0.073,-0.137 0.024,-0.054 0.051,-0.124 0.081,-0.209 0.031,-0.085 0.076,-0.2 0.137,-0.346 0.012,-0.024 0.021,-0.048 0.027,-0.072 0.006,-0.025 0.021,-0.061 0.045,-0.11 v 10.17 h 1.492 v -12.116"
           style="fill:#000000;fill-opacity:1;fill-rule:nonzero;stroke:none;stroke-width:0.1"
           id="path116"
           inkscape:connector-curvature="0" />
        <path
           d="m 264.54,570.292 h -1.492 v 12.007 h 1.492 v -12.007"
           style="fill:#000000;fill-opacity:1;fill-rule:nonzero;stroke:none;stroke-width:0.1"
           id="path118"
           inkscape:connector-curvature="0" />
        <path
           d="m 276.977,582.299 -4.657,-12.316 h -0.91 l -4.73,12.316 h 1.601 l 3.548,-9.369 c 0.06,-0.158 0.102,-0.351 0.126,-0.582 0,0.182 0.037,0.376 0.11,0.582 l 3.42,9.369 h 1.492"
           style="fill:#000000;fill-opacity:1;fill-rule:nonzero;stroke:none;stroke-width:0.1"
           id="path120"
           inkscape:connector-curvature="0" />
        <path
           d="m 286.052,570.292 h -6.913 v 12.007 h 6.75 v -1.255 h -5.258 v -4.003 h 4.348 v -1.255 h -4.348 v -4.239 h 5.421 v -1.255"
           style="fill:#000000;fill-opacity:1;fill-rule:nonzero;stroke:none;stroke-width:0.1"
           id="path122"
           inkscape:connector-curvature="0" />
        <path
           d="m 297.043,570.292 h -1.711 l -3.311,5.148 h -1.601 v -5.148 h -1.491 v 12.007 h 3.656 c 0.364,0 0.683,-0.015 0.955,-0.045 0.273,-0.031 0.519,-0.079 0.737,-0.146 0.219,-0.067 0.419,-0.158 0.6,-0.273 0.182,-0.115 0.364,-0.258 0.546,-0.428 0.631,-0.618 0.947,-1.4 0.947,-2.346 0,-0.995 -0.352,-1.825 -1.056,-2.493 -0.46,-0.448 -1.067,-0.752 -1.819,-0.909 z m -2.275,8.751 c 0,0.752 -0.218,1.303 -0.654,1.655 -0.28,0.231 -0.862,0.346 -1.747,0.346 h -1.947 v -4.348 h 1.947 c 1.601,0 2.401,0.782 2.401,2.347"
           style="fill:#000000;fill-opacity:1;fill-rule:evenodd;stroke:none;stroke-width:0.1"
           id="path124"
           inkscape:connector-curvature="0" />
        <path
           d="m 306.3,581.498 -0.691,-1.237 c -0.267,0.158 -0.504,0.288 -0.71,0.392 -0.206,0.102 -0.388,0.178 -0.545,0.227 -0.547,0.17 -1.098,0.254 -1.656,0.254 -0.691,0 -1.246,-0.154 -1.665,-0.463 -0.418,-0.309 -0.627,-0.719 -0.627,-1.228 0,-0.449 0.188,-0.837 0.564,-1.164 0.376,-0.328 1.176,-0.819 2.401,-1.474 0.849,-0.449 1.479,-0.855 1.892,-1.219 0.619,-0.534 0.928,-1.261 0.928,-2.183 0,-1.031 -0.355,-1.847 -1.064,-2.447 -0.71,-0.6 -1.671,-0.901 -2.884,-0.901 -0.825,0 -1.564,0.134 -2.219,0.401 -0.376,0.145 -0.892,0.443 -1.547,0.891 l 0.764,1.183 c 0.279,-0.194 0.537,-0.358 0.773,-0.491 0.237,-0.134 0.44,-0.231 0.61,-0.291 0.546,-0.207 1.122,-0.31 1.728,-0.31 0.728,0 1.289,0.158 1.683,0.473 0.394,0.316 0.591,0.764 0.591,1.346 0,0.364 -0.06,0.649 -0.182,0.856 -0.218,0.4 -0.558,0.727 -1.018,0.982 -0.146,0.085 -0.385,0.215 -0.719,0.391 -0.334,0.176 -0.761,0.403 -1.282,0.682 -1.711,0.922 -2.566,1.971 -2.566,3.147 0,0.958 0.364,1.729 1.092,2.311 0.728,0.582 1.686,0.873 2.874,0.873 0.764,0 1.438,-0.097 2.02,-0.291 0.4,-0.133 0.885,-0.37 1.455,-0.71"
           style="fill:#000000;fill-opacity:1;fill-rule:nonzero;stroke:none;stroke-width:0.1"
           id="path126"
           inkscape:connector-curvature="0" />
        <path
           d="m 310.753,570.292 h -1.492 v 12.007 h 1.492 v -12.007"
           style="fill:#000000;fill-opacity:1;fill-rule:nonzero;stroke:none;stroke-width:0.1"
           id="path128"
           inkscape:connector-curvature="0" />
        <path
           d="m 324.772,576.35 c 0,-1.625 -0.539,-3.062 -1.619,-4.311 -0.546,-0.631 -1.161,-1.08 -1.846,-1.347 -0.686,-0.267 -1.55,-0.4 -2.593,-0.4 h -3.984 v 12.007 h 4.003 c 1.746,0 3.189,-0.558 4.33,-1.674 1.139,-1.103 1.709,-2.529 1.709,-4.275 z m -1.564,0.018 c 0,1.322 -0.449,2.432 -1.346,3.33 -0.898,0.897 -2.02,1.346 -3.366,1.346 h -2.274 v -9.497 h 2.274 c 1.468,0 2.547,0.364 3.238,1.092 0.219,0.231 0.419,0.494 0.6,0.791 0.182,0.297 0.337,0.61 0.464,0.937 0.128,0.328 0.228,0.661 0.301,1.001 0.072,0.339 0.109,0.673 0.109,1"
           style="fill:#000000;fill-opacity:1;fill-rule:evenodd;stroke:none;stroke-width:0.1"
           id="path130"
           inkscape:connector-curvature="0" />
        <path
           d="m 336.347,570.292 h -1.601 l -1.237,3.547 h -4.857 l -1.238,-3.547 h -1.6 l 4.475,12.353 h 1.601 z m -3.311,4.912 -1.947,5.494 -1.964,-5.494 z"
           style="fill:#000000;fill-opacity:1;fill-rule:evenodd;stroke:none;stroke-width:0.1"
           id="path132"
           inkscape:connector-curvature="0" />
        <path
           d="m 348.513,576.35 c 0,-1.625 -0.54,-3.062 -1.619,-4.311 -0.546,-0.631 -1.161,-1.08 -1.847,-1.347 -0.685,-0.267 -1.549,-0.4 -2.592,-0.4 h -3.984 v 12.007 h 4.002 c 1.747,0 3.19,-0.558 4.33,-1.674 1.14,-1.103 1.71,-2.529 1.71,-4.275 z m -1.565,0.018 c 0,1.322 -0.448,2.432 -1.346,3.33 -0.897,0.897 -2.019,1.346 -3.365,1.346 h -2.274 v -9.497 h 2.274 c 1.467,0 2.547,0.364 3.238,1.092 0.218,0.231 0.418,0.494 0.6,0.791 0.182,0.297 0.337,0.61 0.464,0.937 0.127,0.328 0.227,0.661 0.3,1.001 0.073,0.339 0.109,0.673 0.109,1"
           style="fill:#000000;fill-opacity:1;fill-rule:evenodd;stroke:none;stroke-width:0.1"
           id="path134"
           inkscape:connector-curvature="0" />
        <path
           d="m 358.304,570.292 h -6.913 v 12.007 h 6.75 v -1.255 h -5.258 v -4.003 h 4.348 v -1.255 h -4.348 v -4.239 h 5.421 v -1.255"
           style="fill:#000000;fill-opacity:1;fill-rule:nonzero;stroke:none;stroke-width:0.1"
           id="path136"
           inkscape:connector-curvature="0" />
        <path
           d="m 375.781,576.35 c 0,-1.625 -0.54,-3.062 -1.619,-4.311 -0.546,-0.631 -1.162,-1.08 -1.847,-1.347 -0.685,-0.267 -1.549,-0.4 -2.592,-0.4 h -3.984 v 12.007 h 4.002 c 1.747,0 3.189,-0.558 4.33,-1.674 1.14,-1.103 1.71,-2.529 1.71,-4.275 z m -1.565,0.018 c 0,1.322 -0.449,2.432 -1.346,3.33 -0.897,0.897 -2.02,1.346 -3.366,1.346 h -2.274 v -9.497 h 2.274 c 1.468,0 2.547,0.364 3.239,1.092 0.218,0.231 0.418,0.494 0.6,0.791 0.182,0.297 0.336,0.61 0.464,0.937 0.127,0.328 0.227,0.661 0.3,1.001 0.073,0.339 0.109,0.673 0.109,1"
           style="fill:#000000;fill-opacity:1;fill-rule:evenodd;stroke:none;stroke-width:0.1"
           id="path138"
           inkscape:connector-curvature="0" />
        <path
           d="m 389.647,576.295 c 0,-1.806 -0.57,-3.298 -1.71,-4.475 -1.128,-1.176 -2.565,-1.765 -4.311,-1.765 -1.747,0 -3.19,0.589 -4.33,1.765 -1.14,1.177 -1.71,2.669 -1.71,4.475 0,1.796 0.57,3.281 1.71,4.458 1.14,1.176 2.583,1.764 4.33,1.764 1.746,0 3.183,-0.588 4.311,-1.764 1.14,-1.153 1.71,-2.638 1.71,-4.458 z m -1.637,0 c 0,1.335 -0.43,2.487 -1.292,3.457 -0.861,0.97 -1.891,1.455 -3.092,1.455 -1.213,0 -2.25,-0.485 -3.111,-1.455 -0.861,-0.97 -1.292,-2.122 -1.292,-3.457 0,-1.358 0.431,-2.522 1.292,-3.492 0.849,-0.958 1.886,-1.437 3.111,-1.437 1.213,0 2.244,0.479 3.092,1.437 0.862,0.97 1.292,2.134 1.292,3.492"
           style="fill:#000000;fill-opacity:1;fill-rule:evenodd;stroke:none;stroke-width:0.1"
           id="path140"
           inkscape:connector-curvature="0" />
        <path
           d="m 404.711,578.752 c 0,-0.619 -0.1,-1.18 -0.3,-1.683 -0.2,-0.504 -0.485,-0.931 -0.855,-1.283 -0.37,-0.352 -0.818,-0.622 -1.346,-0.809 -0.528,-0.188 -1.119,-0.282 -1.774,-0.282 -0.157,0 -0.391,0.012 -0.7,0.036 -0.309,0.024 -0.695,0.06 -1.156,0.109 v -4.548 h -1.491 v 12.007 h 3.765 c 1.335,0 2.311,-0.315 2.93,-0.946 0.618,-0.631 0.927,-1.498 0.927,-2.601 z m -1.546,-0.091 c 0,0.8 -0.225,1.425 -0.673,1.873 -0.34,0.34 -0.958,0.51 -1.856,0.51 h -2.056 v -4.949 c 0.668,-0.072 1.201,-0.109 1.601,-0.109 0.68,0 1.201,0.079 1.565,0.237 0.436,0.182 0.782,0.488 1.037,0.918 0.255,0.431 0.382,0.938 0.382,1.52"
           style="fill:#000000;fill-opacity:1;fill-rule:evenodd;stroke:none;stroke-width:0.1"
           id="path142"
           inkscape:connector-curvature="0" />
        <path
           d="m 418.183,576.295 c 0,-1.806 -0.57,-3.298 -1.71,-4.475 -1.128,-1.176 -2.565,-1.765 -4.311,-1.765 -1.747,0 -3.19,0.589 -4.33,1.765 -1.14,1.177 -1.71,2.669 -1.71,4.475 0,1.796 0.57,3.281 1.71,4.458 1.14,1.176 2.583,1.764 4.33,1.764 1.746,0 3.183,-0.588 4.311,-1.764 1.14,-1.153 1.71,-2.638 1.71,-4.458 z m -1.637,0 c 0,1.335 -0.43,2.487 -1.292,3.457 -0.861,0.97 -1.892,1.455 -3.092,1.455 -1.213,0 -2.25,-0.485 -3.111,-1.455 -0.861,-0.97 -1.292,-2.122 -1.292,-3.457 0,-1.358 0.431,-2.522 1.292,-3.492 0.849,-0.958 1.886,-1.437 3.111,-1.437 1.213,0 2.243,0.479 3.092,1.437 0.862,0.97 1.292,2.134 1.292,3.492"
           style="fill:#000000;fill-opacity:1;fill-rule:evenodd;stroke:none;stroke-width:0.1"
           id="path144"
           inkscape:connector-curvature="0" />
        <path
           d="m 429.18,570.292 h -1.71 l -3.311,5.148 h -1.6 v -5.148 h -1.492 v 12.007 h 3.656 c 0.365,0 0.683,-0.015 0.956,-0.045 0.273,-0.031 0.518,-0.079 0.736,-0.146 0.219,-0.067 0.419,-0.158 0.601,-0.273 0.182,-0.115 0.364,-0.258 0.545,-0.428 0.631,-0.618 0.946,-1.4 0.946,-2.346 0,-0.995 -0.351,-1.825 -1.055,-2.493 -0.461,-0.448 -1.067,-0.752 -1.819,-0.909 z m -2.273,8.751 c 0,0.752 -0.219,1.303 -0.655,1.655 -0.279,0.231 -0.861,0.346 -1.747,0.346 h -1.946 v -4.348 h 1.946 c 1.601,0 2.402,0.782 2.402,2.347"
           style="fill:#000000;fill-opacity:1;fill-rule:evenodd;stroke:none;stroke-width:0.1"
           id="path146"
           inkscape:connector-curvature="0" />
        <path
           d="m 439.348,581.044 h -4.003 v -10.752 h -1.491 v 10.752 h -4.002 v 1.255 h 9.496 v -1.255"
           style="fill:#000000;fill-opacity:1;fill-rule:nonzero;stroke:none;stroke-width:0.1"
           id="path148"
           inkscape:connector-curvature="0" />
        <path
           d="m 452.466,576.295 c 0,-1.806 -0.57,-3.298 -1.71,-4.475 -1.127,-1.176 -2.565,-1.765 -4.311,-1.765 -1.747,0 -3.19,0.589 -4.33,1.765 -1.14,1.177 -1.71,2.669 -1.71,4.475 0,1.796 0.57,3.281 1.71,4.458 1.14,1.176 2.583,1.764 4.33,1.764 1.746,0 3.184,-0.588 4.311,-1.764 1.14,-1.153 1.71,-2.638 1.71,-4.458 z m -1.637,0 c 0,1.335 -0.431,2.487 -1.291,3.457 -0.862,0.97 -1.893,1.455 -3.093,1.455 -1.213,0 -2.25,-0.485 -3.111,-1.455 -0.861,-0.97 -1.292,-2.122 -1.292,-3.457 0,-1.358 0.431,-2.522 1.292,-3.492 0.849,-0.958 1.886,-1.437 3.111,-1.437 1.212,0 2.243,0.479 3.093,1.437 0.86,0.97 1.291,2.134 1.291,3.492"
           style="fill:#000000;fill-opacity:1;fill-rule:evenodd;stroke:none;stroke-width:0.1"
           id="path150"
           inkscape:connector-curvature="0" />
        <path
           d="m 243.628,601.852 h -5.148 v -3.093 h 4.22 v -1.928 h -4.22 v -5.039 h -2.292 v 12.006 h 7.44 v -1.946"
           style="fill:#000000;fill-opacity:1;fill-rule:nonzero;stroke:none;stroke-width:0.1"
           id="path152"
           inkscape:connector-curvature="0" />
        <path
           d="m 254.815,591.792 h -2.401 l -0.946,2.965 h -4.02 l -0.983,-2.965 h -2.401 l 4.348,12.006 h 2.056 z m -3.965,4.912 -1.401,4.348 -1.383,-4.348 z"
           style="fill:#000000;fill-opacity:1;fill-rule:evenodd;stroke:none;stroke-width:0.1"
           id="path154"
           inkscape:connector-curvature="0" />
        <path
           d="m 265.458,602.871 -0.873,-1.819 c -0.776,0.558 -1.698,0.836 -2.765,0.836 -1.165,0 -2.116,-0.37 -2.856,-1.109 -0.74,-0.728 -1.11,-1.662 -1.11,-2.802 0,-1.285 0.394,-2.322 1.182,-3.111 0.777,-0.776 1.826,-1.164 3.148,-1.164 0.812,0 1.691,0.188 2.637,0.564 l 0.419,-1.928 c -0.655,-0.304 -1.195,-0.498 -1.619,-0.583 -0.303,-0.06 -0.613,-0.109 -0.928,-0.145 -0.315,-0.037 -0.649,-0.055 -1,-0.055 -1.795,0 -3.245,0.497 -4.348,1.492 -1.347,1.213 -2.02,2.814 -2.02,4.803 0,1.795 0.613,3.293 1.838,4.493 1.14,1.116 2.65,1.674 4.53,1.674 1.491,0 2.746,-0.382 3.765,-1.146"
           style="fill:#000000;fill-opacity:1;fill-rule:nonzero;stroke:none;stroke-width:0.1"
           id="path156"
           inkscape:connector-curvature="0" />
        <path
           d="m 277.28,596.485 c 0,-1.091 -0.121,-1.934 -0.364,-2.528 -0.242,-0.595 -0.673,-1.104 -1.291,-1.528 -0.837,-0.583 -1.965,-0.874 -3.384,-0.874 -1.419,0 -2.553,0.291 -3.402,0.874 -0.618,0.424 -1.049,0.927 -1.292,1.509 -0.23,0.583 -0.345,1.432 -0.345,2.547 v 7.313 h 2.274 v -7.44 c 0,-1.783 0.946,-2.674 2.838,-2.674 1.782,0 2.674,0.891 2.674,2.674 v 7.44 h 2.292 v -7.313"
           style="fill:#000000;fill-opacity:1;fill-rule:nonzero;stroke:none;stroke-width:0.1"
           id="path158"
           inkscape:connector-curvature="0" />
        <path
           d="m 287.445,591.792 h -7.204 v 12.006 h 2.293 v -10.059 h 4.911 v -1.947"
           style="fill:#000000;fill-opacity:1;fill-rule:nonzero;stroke:none;stroke-width:0.1"
           id="path160"
           inkscape:connector-curvature="0" />
        <path
           d="m 300.079,597.832 c 0,-1.674 -0.551,-3.099 -1.655,-4.276 -1.104,-1.176 -2.723,-1.764 -4.858,-1.764 h -4.438 v 12.006 h 4.457 c 2.146,0 3.765,-0.582 4.857,-1.746 1.092,-1.164 1.637,-2.571 1.637,-4.22 z m -2.474,-0.019 c 0,1.48 -0.461,2.566 -1.382,3.257 -0.643,0.473 -1.602,0.709 -2.875,0.709 h -1.819 v -7.968 h 1.819 c 1.359,0 2.407,0.346 3.147,1.037 0.74,0.691 1.11,1.68 1.11,2.965"
           style="fill:#000000;fill-opacity:1;fill-rule:evenodd;stroke:none;stroke-width:0.1"
           id="path162"
           inkscape:connector-curvature="0" />
        <path
           d="m 311.319,591.792 h -2.402 l -0.946,2.965 h -4.02 l -0.983,-2.965 h -2.401 l 4.348,12.006 h 2.056 z m -3.966,4.912 -1.401,4.348 -1.382,-4.348 z"
           style="fill:#000000;fill-opacity:1;fill-rule:evenodd;stroke:none;stroke-width:0.1"
           id="path164"
           inkscape:connector-curvature="0" />
        <path
           d="m 323.854,597.832 c 0,-1.674 -0.552,-3.099 -1.656,-4.276 -1.104,-1.176 -2.723,-1.764 -4.857,-1.764 h -4.439 v 12.006 h 4.457 c 2.146,0 3.766,-0.582 4.857,-1.746 1.091,-1.164 1.638,-2.571 1.638,-4.22 z m -2.475,-0.019 c 0,1.48 -0.461,2.566 -1.383,3.257 -0.642,0.473 -1.6,0.709 -2.874,0.709 h -1.819 v -7.968 h 1.819 c 1.358,0 2.408,0.346 3.148,1.037 0.739,0.691 1.109,1.68 1.109,2.965"
           style="fill:#000000;fill-opacity:1;fill-rule:evenodd;stroke:none;stroke-width:0.1"
           id="path166"
           inkscape:connector-curvature="0" />
        <path
           d="m 333.492,591.792 h -7.55 v 12.006 h 7.313 v -1.946 h -5.021 v -2.965 h 4.112 v -1.947 h -4.112 v -3.201 h 5.258 v -1.947"
           style="fill:#000000;fill-opacity:1;fill-rule:nonzero;stroke:none;stroke-width:0.1"
           id="path168"
           inkscape:connector-curvature="0" />
        <path
           d="m 351.121,597.832 c 0,-1.674 -0.552,-3.099 -1.656,-4.276 -1.103,-1.176 -2.722,-1.764 -4.857,-1.764 h -4.439 v 12.006 h 4.458 c 2.146,0 3.765,-0.582 4.857,-1.746 1.091,-1.164 1.637,-2.571 1.637,-4.22 z m -2.474,-0.019 c 0,1.48 -0.461,2.566 -1.383,3.257 -0.643,0.473 -1.601,0.709 -2.874,0.709 h -1.819 v -7.968 h 1.819 c 1.358,0 2.407,0.346 3.147,1.037 0.74,0.691 1.11,1.68 1.11,2.965"
           style="fill:#000000;fill-opacity:1;fill-rule:evenodd;stroke:none;stroke-width:0.1"
           id="path170"
           inkscape:connector-curvature="0" />
        <path
           d="m 360.759,591.792 h -7.549 v 12.006 h 7.313 v -1.946 h -5.021 v -2.965 h 4.111 v -1.947 h -4.111 v -3.201 h 5.257 v -1.947"
           style="fill:#000000;fill-opacity:1;fill-rule:nonzero;stroke:none;stroke-width:0.1"
           id="path172"
           inkscape:connector-curvature="0" />
        <path
           d="m 376.496,602.871 -0.873,-1.819 c -0.776,0.558 -1.698,0.836 -2.765,0.836 -1.164,0 -2.116,-0.37 -2.856,-1.109 -0.74,-0.728 -1.11,-1.662 -1.11,-2.802 0,-1.285 0.394,-2.322 1.183,-3.111 0.776,-0.776 1.825,-1.164 3.147,-1.164 0.812,0 1.692,0.188 2.638,0.564 l 0.418,-1.928 c -0.655,-0.304 -1.194,-0.498 -1.619,-0.583 -0.303,-0.06 -0.613,-0.109 -0.928,-0.145 -0.315,-0.037 -0.649,-0.055 -1,-0.055 -1.795,0 -3.244,0.497 -4.348,1.492 -1.346,1.213 -2.019,2.814 -2.019,4.803 0,1.795 0.612,3.293 1.837,4.493 1.14,1.116 2.65,1.674 4.53,1.674 1.492,0 2.747,-0.382 3.765,-1.146"
           style="fill:#000000;fill-opacity:1;fill-rule:nonzero;stroke:none;stroke-width:0.1"
           id="path174"
           inkscape:connector-curvature="0" />
        <path
           d="m 380.787,591.792 h -2.292 v 12.006 h 2.292 v -12.006"
           style="fill:#000000;fill-opacity:1;fill-rule:nonzero;stroke:none;stroke-width:0.1"
           id="path176"
           inkscape:connector-curvature="0" />
        <path
           d="m 390.56,604.363 h -1.583 l -1.182,1.182 -1.182,-1.182 h -1.583 l 2.037,2.128 h 1.455 z m 1.001,-12.571 h -7.55 v 12.006 h 7.313 v -1.946 h -5.021 v -2.965 h 4.111 v -1.947 h -4.111 v -3.201 h 5.258 v -1.947"
           style="fill:#000000;fill-opacity:1;fill-rule:evenodd;stroke:none;stroke-width:0.1"
           id="path178"
           inkscape:connector-curvature="0" />
        <path
           d="m 404.215,591.682 h -2.401 l -5.148,7.769 c -0.025,0.036 -0.058,0.094 -0.1,0.172 -0.043,0.079 -0.095,0.179 -0.155,0.301 -0.024,0.048 -0.048,0.09 -0.073,0.127 -0.024,0.037 -0.048,0.079 -0.073,0.128 -0.072,0.133 -0.127,0.273 -0.163,0.418 v -8.805 h -2.183 v 12.006 h 2.638 l 5.039,-7.895 c 0.012,-0.024 0.051,-0.106 0.118,-0.245 0.067,-0.14 0.106,-0.222 0.118,-0.246 l 0.109,-0.309 0.109,-0.219 v 8.914 h 2.165 v -12.116"
           style="fill:#000000;fill-opacity:1;fill-rule:nonzero;stroke:none;stroke-width:0.1"
           id="path180"
           inkscape:connector-curvature="0" />
        <path
           d="m 416.575,602.871 -0.873,-1.819 c -0.777,0.558 -1.698,0.836 -2.766,0.836 -1.164,0 -2.116,-0.37 -2.856,-1.109 -0.74,-0.728 -1.11,-1.662 -1.11,-2.802 0,-1.285 0.394,-2.322 1.183,-3.111 0.776,-0.776 1.825,-1.164 3.147,-1.164 0.813,0 1.692,0.188 2.638,0.564 l 0.418,-1.928 c -0.654,-0.304 -1.194,-0.498 -1.619,-0.583 -0.303,-0.06 -0.612,-0.109 -0.928,-0.145 -0.315,-0.037 -0.648,-0.055 -1,-0.055 -1.795,0 -3.245,0.497 -4.348,1.492 -1.346,1.213 -2.019,2.814 -2.019,4.803 0,1.795 0.612,3.293 1.837,4.493 1.14,1.116 2.65,1.674 4.53,1.674 1.491,0 2.746,-0.382 3.766,-1.146"
           style="fill:#000000;fill-opacity:1;fill-rule:nonzero;stroke:none;stroke-width:0.1"
           id="path182"
           inkscape:connector-curvature="0" />
        <path
           d="m 420.865,591.792 h -2.292 v 12.006 h 2.292 v -12.006"
           style="fill:#000000;fill-opacity:1;fill-rule:nonzero;stroke:none;stroke-width:0.1"
           id="path184"
           inkscape:connector-curvature="0" />
        <path
           d="m 433.239,591.792 h -2.401 l -0.946,2.965 h -4.02 l -0.983,-2.965 h -2.401 l 4.348,12.006 h 2.055 z m -3.965,4.912 -1.401,4.348 -1.383,-4.348 z"
           style="fill:#000000;fill-opacity:1;fill-rule:evenodd;stroke:none;stroke-width:0.1"
           id="path186"
           inkscape:connector-curvature="0" />
        <path
           d="m 442.481,602.998 -0.909,-2.055 c -1.31,0.57 -2.347,0.855 -3.111,0.855 -0.546,0 -0.976,-0.1 -1.291,-0.301 -0.316,-0.2 -0.474,-0.47 -0.474,-0.809 0,-0.437 0.383,-0.861 1.147,-1.274 1.867,-0.994 3.062,-1.764 3.584,-2.31 0.557,-0.546 0.836,-1.261 0.836,-2.147 0,-1.067 -0.367,-1.901 -1.1,-2.501 -0.734,-0.601 -1.774,-0.901 -3.12,-0.901 -0.182,0 -0.364,0.006 -0.546,0.018 -0.182,0.013 -0.358,0.031 -0.528,0.055 -0.679,0.097 -1.515,0.376 -2.51,0.837 -0.073,0.036 -0.173,0.085 -0.3,0.146 -0.128,0.06 -0.288,0.133 -0.482,0.218 l 0.964,2.11 c 0.388,-0.206 0.727,-0.382 1.018,-0.527 0.291,-0.146 0.522,-0.249 0.692,-0.31 0.606,-0.23 1.182,-0.345 1.728,-0.345 0.546,0 0.973,0.109 1.283,0.327 0.309,0.218 0.463,0.509 0.463,0.873 0,0.461 -0.352,0.891 -1.055,1.292 l -1.855,1.055 c -1.043,0.594 -1.771,1.134 -2.183,1.619 -0.4,0.485 -0.601,1.055 -0.601,1.71 0,0.619 0.158,1.176 0.473,1.674 0.098,0.17 0.222,0.327 0.373,0.473 0.152,0.145 0.325,0.285 0.519,0.418 0.776,0.534 1.783,0.801 3.02,0.801 0.812,0 1.564,-0.104 2.255,-0.31 0.243,-0.072 0.504,-0.166 0.783,-0.282 0.279,-0.115 0.588,-0.251 0.927,-0.409"
           style="fill:#000000;fill-opacity:1;fill-rule:nonzero;stroke:none;stroke-width:0.1"
           id="path188"
           inkscape:connector-curvature="0" />
        <path
           d="m 212.934,575.32 v 15.858 h -1.984 c -0.311,-1.279 -1.268,-4.796 -1.268,-4.796 -1.317,0.875 -2.632,1.571 -4.038,2.273 -3.367,1.683 -6.739,2.523 -10.119,2.523 -4.405,0 -8.464,-1.096 -12.182,-3.285 -3.693,-2.168 -6.602,-5.231 -8.727,-9.195 -2.103,-3.918 -3.155,-8.257 -3.155,-13.023 0,-8.927 5.741,-17.827 12.875,-21.062 6.059,-2.725 12.681,-2.768 19.746,0.212 1.68,0.709 2.463,1.292 2.31,1.95 -0.094,0.405 -0.462,0.735 -0.963,0.457 -0.655,-0.362 -1.193,-0.546 -1.937,-0.858 -5.384,-2.232 -26.014,-5.386 -23.965,24.102 0.229,3.301 0.953,6.306 1.786,8.311 1.482,3.547 3.509,6.145 6.09,7.774 2.594,1.625 5.493,2.435 8.69,2.435 3.827,0 7.101,-1.081 9.811,-3.25 2.712,-2.173 4.788,-5.657 6.241,-10.426 h 0.789"
           style="fill:#000000;fill-opacity:1;fill-rule:nonzero;stroke:none;stroke-width:0.1"
           id="path190"
           inkscape:connector-curvature="0" />
        <path
           d="m 159.058,596.016 v -25.254 h 5.126 v 15.423 h 5.637 c 2.796,0 4.488,-2.164 4.488,-4.054 h 0.637 v 9.208 l -1.303,0.002 -0.852,-2.92 h -8.607 v 9.366 c 0,2.236 0.605,2.423 2.935,2.423 h 9.971 v 2.236 h -22.458 v -1.025 c 4.286,-0.745 4.426,-0.745 4.426,-5.405"
           style="fill:#000000;fill-opacity:1;fill-rule:nonzero;stroke:none;stroke-width:0.1"
           id="path192"
           inkscape:connector-curvature="0" />
        <path
           d="m 236.346,681.027 h -6.417 v 1.037 h 18.475 c 5.228,0 9.388,-0.996 12.478,-2.989 3.089,-1.993 4.634,-5.221 4.634,-9.684 0,-4.246 -1.631,-7.42 -4.894,-9.522 -3.262,-2.101 -7.119,-3.152 -11.57,-3.152 -2.593,0 -4.624,0.367 -6.094,1.102 v -20.421 h 6.612 v -1.037 h -19.641 v 1.037 h 6.417 z m 6.612,-21.907 c 0.562,-0.348 1.286,-0.662 2.172,-0.944 0.886,-0.281 1.825,-0.422 2.82,-0.422 2.722,0 5.164,0.856 7.325,2.567 2.161,1.713 3.241,4.54 3.241,8.484 0,4.205 -0.962,7.293 -2.885,9.265 -1.923,1.971 -4.829,2.957 -8.718,2.957 h -3.955 V 659.12"
           style="fill:#000000;fill-opacity:1;fill-rule:evenodd;stroke:none;stroke-width:0.1"
           id="path194"
           inkscape:connector-curvature="0" />
        <path
           d="m 291.832,683.037 c 5.489,0 10.275,-2.331 14.359,-6.992 4.084,-4.661 6.125,-10.272 6.125,-16.832 0,-6.604 -2.02,-12.226 -6.06,-16.865 -4.041,-4.64 -8.849,-6.96 -14.424,-6.96 -5.488,0 -10.273,2.331 -14.357,6.992 -4.084,4.661 -6.126,10.272 -6.126,16.833 0,6.603 2.02,12.225 6.061,16.864 4.04,4.64 8.848,6.96 14.422,6.96 z m 0,-46.612 c 3.501,0 6.224,1.22 8.168,3.658 1.945,2.438 3.252,5.33 3.922,8.675 0.67,3.345 1.005,6.83 1.005,10.455 0,3.754 -0.314,7.271 -0.94,10.551 -0.627,3.28 -1.912,6.14 -3.857,8.578 -1.944,2.438 -4.71,3.658 -8.298,3.658 -3.5,0 -6.222,-1.22 -8.167,-3.658 -1.944,-2.438 -3.252,-5.33 -3.922,-8.675 -0.67,-3.345 -1.004,-6.829 -1.004,-10.454 0,-3.755 0.313,-7.272 0.94,-10.552 0.626,-3.28 1.912,-6.14 3.857,-8.578 1.944,-2.438 4.71,-3.658 8.296,-3.658"
           style="fill:#000000;fill-opacity:1;fill-rule:evenodd;stroke:none;stroke-width:0.1"
           id="path196"
           inkscape:connector-curvature="0" />
        <path
           d="m 323.411,681.027 h -6.483 v 1.037 h 19.901 c 4.623,0 8.373,-0.801 11.246,-2.405 2.874,-1.604 4.311,-4.638 4.311,-9.102 0,-3.512 -1.426,-6.048 -4.278,-7.608 -2.853,-1.56 -6.05,-2.557 -9.594,-2.991 4.106,-0.432 7.076,-1.351 8.913,-2.755 1.837,-1.405 2.993,-4.138 3.468,-8.201 l 0.908,-7.909 c 0.216,-1.642 0.637,-2.734 1.263,-3.274 0.627,-0.54 1.33,-0.81 2.107,-0.81 0.692,0 1.577,0.216 2.658,0.648 l 0.389,-0.843 c -0.691,-0.259 -1.458,-0.464 -2.301,-0.616 -0.843,-0.151 -1.848,-0.226 -3.014,-0.226 -3.587,0 -5.889,0.832 -6.904,2.496 -1.015,1.663 -1.804,4.721 -2.366,9.173 l -0.454,3.889 c -0.259,2.507 -0.983,4.43 -2.171,5.77 -1.189,1.34 -3.447,2.01 -6.774,2.01 h -4.214 v -21.912 h 6.612 v -1.037 h -19.706 v 1.037 h 6.483 z m 6.611,-20.68 h 3.242 c 4.018,0 7.043,0.791 9.074,2.374 2.032,1.582 3.047,4.195 3.047,7.836 0,3.122 -0.778,5.647 -2.333,7.576 -1.556,1.93 -4.43,2.894 -8.622,2.894 h -4.408 v -20.68"
           style="fill:#000000;fill-opacity:1;fill-rule:evenodd;stroke:none;stroke-width:0.1"
           id="path198"
           inkscape:connector-curvature="0" />
        <path
           d="m 376.969,681.027 h -1.361 c -5.877,0 -9.702,-0.745 -11.473,-2.236 -1.772,-1.491 -2.658,-4.873 -2.658,-10.146 h -1.037 v 13.419 h 39.671 v -13.419 h -1.038 c 0,5.23 -0.885,8.601 -2.657,10.113 -1.772,1.513 -5.575,2.269 -11.409,2.269 h -1.426 v -43.629 h 6.677 v -1.037 h -19.965 v 1.037 h 6.676 v 43.629"
           style="fill:#000000;fill-opacity:1;fill-rule:nonzero;stroke:none;stroke-width:0.1"
           id="path200"
           inkscape:connector-curvature="0" />
        <path
           d="m 425.342,683.037 c 5.489,0 10.275,-2.331 14.358,-6.992 4.084,-4.661 6.126,-10.272 6.126,-16.832 0,-6.604 -2.02,-12.226 -6.06,-16.865 -4.041,-4.64 -8.849,-6.96 -14.424,-6.96 -5.488,0 -10.274,2.331 -14.358,6.992 -4.084,4.661 -6.125,10.272 -6.125,16.833 0,6.603 2.02,12.225 6.061,16.864 4.04,4.64 8.848,6.96 14.422,6.96 z m 0,-46.612 c 3.501,0 6.223,1.22 8.168,3.658 1.945,2.438 3.252,5.33 3.922,8.675 0.67,3.345 1.005,6.83 1.005,10.455 0,3.754 -0.314,7.271 -0.941,10.551 -0.626,3.28 -1.912,6.14 -3.856,8.578 -1.945,2.438 -4.711,3.658 -8.298,3.658 -3.5,0 -6.222,-1.22 -8.167,-3.658 -1.945,-2.438 -3.252,-5.33 -3.922,-8.675 -0.67,-3.345 -1.005,-6.829 -1.005,-10.454 0,-3.755 0.314,-7.272 0.94,-10.552 0.627,-3.28 1.913,-6.14 3.857,-8.578 1.945,-2.438 4.711,-3.658 8.297,-3.658"
           style="fill:#000000;fill-opacity:1;fill-rule:evenodd;stroke:none;stroke-width:0.1"
           id="path202"
           inkscape:connector-curvature="0" />
        <path
           d="m 208.606,644.869 c 1.286,0 2.373,-0.444 3.261,-1.333 0.889,-0.888 1.333,-1.975 1.333,-3.261 0,-1.286 -0.444,-2.373 -1.333,-3.262 -0.888,-0.889 -1.975,-1.333 -3.261,-1.333 -1.286,0 -2.373,0.444 -3.261,1.333 -0.889,0.889 -1.333,1.976 -1.333,3.262 0,1.286 0.444,2.373 1.333,3.261 0.888,0.889 1.975,1.333 3.261,1.333 z m -51.752,37.066 h 20.419 v -1.167 h -5.251 v -28.482 c 0,-4.747 0.789,-8.372 2.366,-10.874 1.577,-2.503 4.57,-3.755 8.978,-3.755 3.327,0 6.093,1.122 8.297,3.366 2.204,2.244 3.306,5.481 3.306,9.71 v 24.597 c 0,1.943 -0.313,3.334 -0.94,4.176 -0.626,0.841 -1.761,1.262 -3.403,1.262 h -1.88 v 1.167 h 12.835 v -1.167 h -1.685 c -1.167,0 -2.021,-0.443 -2.561,-1.327 -0.54,-0.885 -0.81,-2.255 -0.81,-4.111 v -24.211 c 0,-4.92 -1.415,-8.783 -4.246,-11.588 -2.831,-2.805 -7.12,-4.208 -12.867,-4.208 -5.316,0 -9.562,1.435 -12.738,4.306 -3.176,2.869 -4.764,6.807 -4.764,11.813 v 29.326 h -5.056 z m -10.729,10.776 h 75.316 v -67.69 h -75.316 v 67.69"
           style="fill:#000000;fill-opacity:1;fill-rule:evenodd;stroke:none;stroke-width:0.1"
           id="path204"
           inkscape:connector-curvature="0" />
      </g>
    </g>
  </g>
</svg>
