<?xml version="1.0" encoding="UTF-8" standalone="no"?>
<!-- Created with Inkscape (http://www.inkscape.org/) -->

<svg
   xmlns:dc="http://purl.org/dc/elements/1.1/"
   xmlns:cc="http://creativecommons.org/ns#"
   xmlns:rdf="http://www.w3.org/1999/02/22-rdf-syntax-ns#"
   xmlns:svg="http://www.w3.org/2000/svg"
   xmlns="http://www.w3.org/2000/svg"
   xmlns:sodipodi="http://sodipodi.sourceforge.net/DTD/sodipodi-0.dtd"
   xmlns:inkscape="http://www.inkscape.org/namespaces/inkscape"
   width="23.879528mm"
   height="105.72785mm"
   viewBox="0 0 23.879528 105.72785"
   version="1.1"
   id="svg8"
   inkscape:version="0.92.1 r15371"
   sodipodi:docname="up.svg">
  <defs
     id="defs2" />
  <sodipodi:namedview
     id="base"
     pagecolor="#ffffff"
     bordercolor="#666666"
     borderopacity="1.0"
     inkscape:pageopacity="0.0"
     inkscape:pageshadow="2"
     inkscape:zoom="0.35"
     inkscape:cx="-385.40848"
     inkscape:cy="-196.45091"
     inkscape:document-units="mm"
     inkscape:current-layer="g10"
     showgrid="false"
     borderlayer="false"
     fit-margin-top="0"
     fit-margin-left="0"
     fit-margin-right="0"
     fit-margin-bottom="0"
     inkscape:window-width="1920"
     inkscape:window-height="1001"
     inkscape:window-x="-9"
     inkscape:window-y="-9"
     inkscape:window-maximized="1" />
  <metadata
     id="metadata5">
    <rdf:RDF>
      <cc:Work
         rdf:about="">
        <dc:format>image/svg+xml</dc:format>
        <dc:type
           rdf:resource="http://purl.org/dc/dcmitype/StillImage" />
        <dc:title></dc:title>
      </cc:Work>
    </rdf:RDF>
  </metadata>
  <g
     inkscape:label="Layer 1"
     inkscape:groupmode="layer"
     id="layer1"
     transform="translate(-53.969683,16.93533)">
    <g
       id="g10"
       transform="matrix(0.35277777,0,0,-0.35277777,-0.70651119,282.72497)">
      <g
         id="g115"
         transform="rotate(-90,188.83264,699.58029)">
        <path
           d="m 129.20314,721.74129 h -6.417 v 1.037 h 18.475 c 5.228,0 9.388,-0.996 12.478,-2.989 3.089,-1.993 4.634,-5.221 4.634,-9.684 0,-4.246 -1.631,-7.42 -4.894,-9.522 -3.262,-2.101 -7.119,-3.152 -11.57,-3.152 -2.593,0 -4.624,0.367 -6.094,1.102 v -20.421 h 6.612 v -1.037 h -19.641 v 1.037 h 6.417 z m 6.612,-21.907 c 0.562,-0.348 1.286,-0.662 2.172,-0.944 0.886,-0.281 1.825,-0.422 2.82,-0.422 2.722,0 5.164,0.856 7.325,2.567 2.161,1.713 3.241,4.54 3.241,8.484 0,4.205 -0.962,7.293 -2.885,9.265 -1.923,1.971 -4.829,2.957 -8.718,2.957 h -3.955 v -21.907"
           style="fill:#000000;fill-opacity:1;fill-rule:evenodd;stroke:none;stroke-width:0.1"
           id="path194"
           inkscape:connector-curvature="0" />
        <path
           d="m 184.68914,723.75129 c 5.489,0 10.275,-2.331 14.359,-6.992 4.084,-4.661 6.125,-10.272 6.125,-16.832 0,-6.604 -2.02,-12.226 -6.06,-16.865 -4.041,-4.64 -8.849,-6.96 -14.424,-6.96 -5.488,0 -10.273,2.331 -14.357,6.992 -4.084,4.661 -6.126,10.272 -6.126,16.833 0,6.603 2.02,12.225 6.061,16.864 4.04,4.64 8.848,6.96 14.422,6.96 z m 0,-46.612 c 3.501,0 6.224,1.22 8.168,3.658 1.945,2.438 3.252,5.33 3.922,8.675 0.67,3.345 1.005,6.83 1.005,10.455 0,3.754 -0.314,7.271 -0.94,10.551 -0.627,3.28 -1.912,6.14 -3.857,8.578 -1.944,2.438 -4.71,3.658 -8.298,3.658 -3.5,0 -6.222,-1.22 -8.167,-3.658 -1.944,-2.438 -3.252,-5.33 -3.922,-8.675 -0.67,-3.345 -1.004,-6.829 -1.004,-10.454 0,-3.755 0.313,-7.272 0.94,-10.552 0.626,-3.28 1.912,-6.14 3.857,-8.578 1.944,-2.438 4.71,-3.658 8.296,-3.658"
           style="fill:#000000;fill-opacity:1;fill-rule:evenodd;stroke:none;stroke-width:0.1"
           id="path196"
           inkscape:connector-curvature="0" />
        <path
           d="m 216.26814,721.74129 h -6.483 v 1.037 h 19.901 c 4.623,0 8.373,-0.801 11.246,-2.405 2.874,-1.604 4.311,-4.638 4.311,-9.102 0,-3.512 -1.426,-6.048 -4.278,-7.608 -2.853,-1.56 -6.05,-2.557 -9.594,-2.991 4.106,-0.432 7.076,-1.351 8.913,-2.755 1.837,-1.405 2.993,-4.138 3.468,-8.201 l 0.908,-7.909 c 0.216,-1.642 0.637,-2.734 1.263,-3.274 0.627,-0.54 1.33,-0.81 2.107,-0.81 0.692,0 1.577,0.216 2.658,0.648 l 0.389,-0.843 c -0.691,-0.259 -1.458,-0.464 -2.301,-0.616 -0.843,-0.151 -1.848,-0.226 -3.014,-0.226 -3.587,0 -5.889,0.832 -6.904,2.496 -1.015,1.663 -1.804,4.721 -2.366,9.173 l -0.454,3.889 c -0.259,2.507 -0.983,4.43 -2.171,5.77 -1.189,1.34 -3.447,2.01 -6.774,2.01 h -4.214 v -21.912 h 6.612 v -1.037 h -19.706 v 1.037 h 6.483 z m 6.611,-20.68 h 3.242 c 4.018,0 7.043,0.791 9.074,2.374 2.032,1.582 3.047,4.195 3.047,7.836 0,3.122 -0.778,5.647 -2.333,7.576 -1.556,1.93 -4.43,2.894 -8.622,2.894 h -4.408 v -20.68"
           style="fill:#000000;fill-opacity:1;fill-rule:evenodd;stroke:none;stroke-width:0.1"
           id="path198"
           inkscape:connector-curvature="0" />
        <path
           d="m 269.82614,721.74129 h -1.361 c -5.877,0 -9.702,-0.745 -11.473,-2.236 -1.772,-1.491 -2.658,-4.873 -2.658,-10.146 h -1.037 v 13.419 h 39.671 v -13.419 h -1.038 c 0,5.23 -0.885,8.601 -2.657,10.113 -1.772,1.513 -5.575,2.269 -11.409,2.269 h -1.426 v -43.629 h 6.677 v -1.037 h -19.965 v 1.037 h 6.676 v 43.629"
           style="fill:#000000;fill-opacity:1;fill-rule:nonzero;stroke:none;stroke-width:0.1"
           id="path200"
           inkscape:connector-curvature="0" />
        <path
           d="m 318.19914,723.75129 c 5.489,0 10.275,-2.331 14.358,-6.992 4.084,-4.661 6.126,-10.272 6.126,-16.832 0,-6.604 -2.02,-12.226 -6.06,-16.865 -4.041,-4.64 -8.849,-6.96 -14.424,-6.96 -5.488,0 -10.274,2.331 -14.358,6.992 -4.084,4.661 -6.125,10.272 -6.125,16.833 0,6.603 2.02,12.225 6.061,16.864 4.04,4.64 8.848,6.96 14.422,6.96 z m 0,-46.612 c 3.501,0 6.223,1.22 8.168,3.658 1.945,2.438 3.252,5.33 3.922,8.675 0.67,3.345 1.005,6.83 1.005,10.455 0,3.754 -0.314,7.271 -0.941,10.551 -0.626,3.28 -1.912,6.14 -3.856,8.578 -1.945,2.438 -4.711,3.658 -8.298,3.658 -3.5,0 -6.222,-1.22 -8.167,-3.658 -1.945,-2.438 -3.252,-5.33 -3.922,-8.675 -0.67,-3.345 -1.005,-6.829 -1.005,-10.454 0,-3.755 0.314,-7.272 0.94,-10.552 0.627,-3.28 1.913,-6.14 3.857,-8.578 1.945,-2.438 4.711,-3.658 8.297,-3.658"
           style="fill:#000000;fill-opacity:1;fill-rule:evenodd;stroke:none;stroke-width:0.1"
           id="path202"
           inkscape:connector-curvature="0" />
        <path
           d="m 101.46314,685.58329 c 1.286,0 2.373,-0.444 3.261,-1.333 0.889,-0.888 1.333,-1.975 1.333,-3.261 0,-1.286 -0.444,-2.373 -1.333,-3.262 -0.888,-0.889 -1.975,-1.333 -3.261,-1.333 -1.286,0 -2.373,0.444 -3.261,1.333 -0.889,0.889 -1.333,1.976 -1.333,3.262 0,1.286 0.444,2.373 1.333,3.261 0.888,0.889 1.975,1.333 3.261,1.333 z m -51.752,37.066 h 20.419 v -1.167 h -5.251 v -28.482 c 0,-4.747 0.789,-8.372 2.366,-10.874 1.577,-2.503 4.57,-3.755 8.978,-3.755 3.327,0 6.093,1.122 8.297,3.366 2.204,2.244 3.306,5.481 3.306,9.71 v 24.597 c 0,1.943 -0.313,3.334 -0.94,4.176 -0.626,0.841 -1.761,1.262 -3.403,1.262 h -1.88 v 1.167 h 12.835 v -1.167 h -1.685 c -1.167,0 -2.021,-0.443 -2.561,-1.327 -0.54,-0.885 -0.81,-2.255 -0.81,-4.111 v -24.211 c 0,-4.92 -1.415,-8.783 -4.246,-11.588 -2.831,-2.805 -7.12,-4.208 -12.867,-4.208 -5.316,0 -9.562,1.435 -12.738,4.306 -3.176,2.869 -4.764,6.807 -4.764,11.813 v 29.326 h -5.056 z m -10.729,10.776 h 75.316 v -67.69 h -75.316 v 67.69"
           style="fill:#000000;fill-opacity:1;fill-rule:evenodd;stroke:none;stroke-width:0.1"
           id="path204"
           inkscape:connector-curvature="0" />
      </g>
    </g>
  </g>
</svg>
